<svg width="16" height="16" viewBox="0 0 16 16" fill="none" xmlns="http://www.w3.org/2000/svg">
<path d="M13.4693 7.27031H12.2037C12.1318 7.27031 12.0631 7.30156 12.0146 7.35625L8.59432 11.2984V2.5C8.59432 2.43125 8.53807 2.375 8.46932 2.375H7.53182C7.46307 2.375 7.40682 2.43125 7.40682 2.5V11.2984L3.98651 7.35625C3.93963 7.30156 3.87088 7.27031 3.79744 7.27031H2.53182C2.42557 7.27031 2.36776 7.39688 2.43807 7.47656L7.62401 13.4531C7.67088 13.5072 7.72884 13.5506 7.79394 13.5803C7.85905 13.61 7.92978 13.6254 8.00135 13.6254C8.07292 13.6254 8.14365 13.61 8.20876 13.5803C8.27386 13.5506 8.33182 13.5072 8.37869 13.4531L13.5631 7.47656C13.6334 7.39531 13.5756 7.27031 13.4693 7.27031Z" fill="black" fill-opacity="0.88"/>
</svg>
