<svg width="16" height="16" viewBox="0 0 16 16" fill="none" xmlns="http://www.w3.org/2000/svg">
<path d="M14.4208 10.9672H5.11616L5.58335 10.0156L13.3458 10.0016C13.6083 10.0016 13.8333 9.81406 13.8802 9.55469L14.9552 3.5375C14.9833 3.37969 14.9412 3.21719 14.838 3.09375C14.7871 3.033 14.7235 2.98407 14.6517 2.95034C14.58 2.91661 14.5017 2.8989 14.4224 2.89844L4.54741 2.86562L4.46304 2.46875C4.40991 2.21562 4.18179 2.03125 3.92241 2.03125H1.50835C1.36207 2.03125 1.22177 2.08936 1.11834 2.1928C1.0149 2.29624 0.956787 2.43653 0.956787 2.58281C0.956787 2.7291 1.0149 2.86939 1.11834 2.97283C1.22177 3.07626 1.36207 3.13438 1.50835 3.13438H3.47554L3.84429 4.8875L4.7521 9.28281L3.58335 11.1906C3.52265 11.2725 3.4861 11.3698 3.47781 11.4714C3.46953 11.573 3.48985 11.675 3.53647 11.7656C3.63022 11.9516 3.81929 12.0688 4.02866 12.0688H5.00991C4.80072 12.3466 4.68773 12.685 4.68804 13.0328C4.68804 13.9172 5.40679 14.6359 6.29116 14.6359C7.17554 14.6359 7.89429 13.9172 7.89429 13.0328C7.89429 12.6844 7.77866 12.3453 7.57241 12.0688H10.0896C9.88041 12.3466 9.76742 12.685 9.76772 13.0328C9.76772 13.9172 10.4865 14.6359 11.3708 14.6359C12.2552 14.6359 12.974 13.9172 12.974 13.0328C12.974 12.6844 12.8583 12.3453 12.6521 12.0688H14.4224C14.7255 12.0688 14.974 11.8219 14.974 11.5172C14.9731 11.3711 14.9144 11.2312 14.8108 11.1282C14.7072 11.0251 14.567 10.9673 14.4208 10.9672ZM4.7771 3.95312L13.774 3.98281L12.8927 8.91719L5.82554 8.92969L4.7771 3.95312ZM6.29116 13.5266C6.01929 13.5266 5.79741 13.3047 5.79741 13.0328C5.79741 12.7609 6.01929 12.5391 6.29116 12.5391C6.56304 12.5391 6.78491 12.7609 6.78491 13.0328C6.78491 13.1638 6.73289 13.2894 6.6403 13.3819C6.5477 13.4745 6.42211 13.5266 6.29116 13.5266ZM11.3708 13.5266C11.099 13.5266 10.8771 13.3047 10.8771 13.0328C10.8771 12.7609 11.099 12.5391 11.3708 12.5391C11.6427 12.5391 11.8646 12.7609 11.8646 13.0328C11.8646 13.1638 11.8126 13.2894 11.72 13.3819C11.6274 13.4745 11.5018 13.5266 11.3708 13.5266Z" fill="white"/>
</svg>
