<svg viewBox="0 0 16 16" xmlns="http://www.w3.org/2000/svg">
<path fill-rule="evenodd" clip-rule="evenodd" d="M14.1666 6.66683C14.1666 3.99745 12.0026 1.8335 9.33325 1.8335C6.90048 1.8335 4.88674 3.63132 4.54961 5.97071C4.51022 6.24403 4.25672 6.43367 3.98341 6.39428C3.71009 6.35489 3.52045 6.10139 3.55984 5.82807C3.96686 3.00365 6.39619 0.833496 9.33325 0.833496C12.5549 0.833496 15.1666 3.44517 15.1666 6.66683C15.1666 7.66129 14.9173 8.59888 14.4776 9.41917L14.8915 11.642C14.9216 11.804 14.87 11.9705 14.7535 12.0871C14.6369 12.2036 14.4704 12.2552 14.3084 12.225L12.0856 11.8112C11.5278 12.1102 10.9156 12.3213 10.2677 12.4256C9.9951 12.4696 9.73848 12.2842 9.69455 12.0115C9.65063 11.7389 9.83602 11.4823 10.1087 11.4384C10.6981 11.3434 11.2517 11.1418 11.7496 10.8539C11.8529 10.7941 11.9741 10.7733 12.0914 10.7951L13.775 11.1086L13.4615 9.42502C13.4397 9.3077 13.4605 9.18643 13.5203 9.08313C13.9312 8.37272 14.1666 7.54802 14.1666 6.66683ZM1.83325 11.0002C1.83325 9.25126 3.25102 7.8335 4.99992 7.8335C6.74882 7.8335 8.16659 9.25126 8.16659 11.0002C8.16659 12.7491 6.74882 14.1668 4.99992 14.1668C4.4223 14.1668 3.88221 14.0126 3.41695 13.7435C3.31365 13.6837 3.19239 13.6629 3.07507 13.6847L2.14153 13.8586L2.31534 12.925C2.33718 12.8077 2.31634 12.6864 2.25659 12.5831C1.98745 12.1179 1.83325 11.5778 1.83325 11.0002ZM4.99992 6.8335C2.69873 6.8335 0.833252 8.69898 0.833252 11.0002C0.833252 11.6906 1.00155 12.3429 1.29961 12.9172L1.02503 14.392C0.994864 14.554 1.04649 14.7205 1.16303 14.8371C1.27958 14.9536 1.44607 15.0052 1.6081 14.9751L3.08286 14.7005C3.65715 14.9985 4.30951 15.1668 4.99992 15.1668C7.30111 15.1668 9.16659 13.3014 9.16659 11.0002C9.16659 8.69898 7.30111 6.8335 4.99992 6.8335Z"/>
</svg>
