<svg width="16" height="16" viewBox="0 0 16 16" fill="none" xmlns="http://www.w3.org/2000/svg">
<path fill-rule="evenodd" clip-rule="evenodd" d="M1.73325 2.83334C1.2362 2.83334 0.833252 3.23628 0.833252 3.73334V12.2667C0.833252 12.7637 1.2362 13.1667 1.73325 13.1667H14.2666C14.7636 13.1667 15.1666 12.7637 15.1666 12.2667V3.73334C15.1666 3.23628 14.7636 2.83334 14.2666 2.83334H1.73325ZM1.83325 5.5V3.83334H14.1666V5.5H1.83325ZM1.83325 6.5H14.1666V12.1667H1.83325V6.5ZM3.49992 9.33334C3.49992 8.689 4.02225 8.16667 4.66659 8.16667C5.31092 8.16667 5.83325 8.689 5.83325 9.33334C5.83325 9.97767 5.31092 10.5 4.66659 10.5C4.02225 10.5 3.49992 9.97767 3.49992 9.33334Z" fill="#16171D"/>
</svg>
