<svg width="16" height="16" viewBox="0 0 16 16" fill="none" xmlns="http://www.w3.org/2000/svg">
<path d="M14.4219 4.43077C14.2124 3.94583 13.9104 3.50638 13.5328 3.13702C13.1549 2.76656 12.7093 2.47216 12.2203 2.26984C11.7132 2.0592 11.1694 1.95138 10.6203 1.95265C9.85 1.95265 9.09844 2.16359 8.44531 2.56202C8.28906 2.65734 8.14062 2.76202 8 2.87609C7.85938 2.76202 7.71094 2.65734 7.55469 2.56202C6.90156 2.16359 6.15 1.95265 5.37969 1.95265C4.825 1.95265 4.2875 2.0589 3.77969 2.26984C3.28906 2.47296 2.84687 2.76515 2.46719 3.13702C2.08906 3.50596 1.787 3.94552 1.57812 4.43077C1.36094 4.93546 1.25 5.4714 1.25 6.02296C1.25 6.54327 1.35625 7.08546 1.56719 7.63702C1.74375 8.09796 1.99687 8.57609 2.32031 9.0589C2.83281 9.82296 3.5375 10.6198 4.4125 11.4276C5.8625 12.7667 7.29844 13.6917 7.35938 13.7292L7.72969 13.9667C7.89375 14.0714 8.10469 14.0714 8.26875 13.9667L8.63906 13.7292C8.7 13.6901 10.1344 12.7667 11.5859 11.4276C12.4609 10.6198 13.1656 9.82296 13.6781 9.0589C14.0016 8.57609 14.2562 8.09796 14.4312 7.63702C14.6422 7.08546 14.7484 6.54327 14.7484 6.02296C14.75 5.4714 14.6391 4.93546 14.4219 4.43077ZM8 12.7308C8 12.7308 2.4375 9.16671 2.4375 6.02296C2.4375 4.43077 3.75469 3.14015 5.37969 3.14015C6.52187 3.14015 7.5125 3.77765 8 4.7089C8.4875 3.77765 9.47813 3.14015 10.6203 3.14015C12.2453 3.14015 13.5625 4.43077 13.5625 6.02296C13.5625 9.16671 8 12.7308 8 12.7308Z" fill="white"/>
</svg>
