<svg width="16" height="16" viewBox="0 0 16 16" fill="none" xmlns="http://www.w3.org/2000/svg">
<path d="M13.8315 6.97373L13.8284 6.96123L12.0753 2.50654C11.9972 2.25498 11.7644 2.08154 11.5003 2.08154H4.39405C4.12842 2.08154 3.89248 2.25811 3.81748 2.51279L2.17842 6.92217L2.17373 6.9331L2.17061 6.9456C2.1503 7.02217 2.14405 7.10029 2.15498 7.17685C2.15342 7.20185 2.15186 7.22686 2.15186 7.25186V12.969C2.15227 13.2209 2.25249 13.4623 2.43056 13.6403C2.60863 13.8184 2.85003 13.9186 3.10186 13.919H12.9019C13.4253 13.919 13.8519 13.4925 13.8534 12.969V7.25186C13.8534 7.23154 13.8534 7.21123 13.8519 7.19404C13.8581 7.11748 13.8519 7.04404 13.8315 6.97373ZM9.20967 6.30185L9.20498 6.54717C9.19248 7.24873 8.70811 7.72061 8.0003 7.72061C7.65498 7.72061 7.35811 7.60967 7.14405 7.39873C6.92998 7.18779 6.8128 6.89404 6.80655 6.54717L6.80186 6.30185H3.58623L4.82842 3.28154H11.0659L12.3425 6.30185H9.20967ZM3.3503 7.50186H5.80811C6.1878 8.39404 6.99561 8.92061 8.00186 8.92061C8.52842 8.92061 9.01748 8.77373 9.4128 8.4956C9.75967 8.25185 10.03 7.91123 10.205 7.50186H12.6503V12.719H3.3503V7.50186Z" fill="white"/>
</svg>
