<svg viewBox="0 0 16 16" xmlns="http://www.w3.org/2000/svg">
<path d="M13.875 12.375H3.125V2.625C3.125 2.55625 3.06875 2.5 3 2.5H2.125C2.05625 2.5 2 2.55625 2 2.625V13.375C2 13.4438 2.05625 13.5 2.125 13.5H13.875C13.9438 13.5 14 13.4438 14 13.375V12.5C14 12.4312 13.9438 12.375 13.875 12.375ZM4.77812 9.96406C4.82656 10.0125 4.90469 10.0125 4.95469 9.96406L7.11562 7.81406L9.10938 9.82031C9.15781 9.86875 9.2375 9.86875 9.28594 9.82031L13.5891 5.51875C13.6375 5.47031 13.6375 5.39062 13.5891 5.34219L12.9703 4.72344C12.9468 4.70017 12.9151 4.68712 12.882 4.68712C12.849 4.68712 12.8172 4.70017 12.7937 4.72344L9.2 8.31563L7.20937 6.3125C7.18588 6.28924 7.15416 6.27619 7.12109 6.27619C7.08803 6.27619 7.05631 6.28924 7.03281 6.3125L4.16094 9.16719C4.13767 9.19068 4.12462 9.22241 4.12462 9.25547C4.12462 9.28853 4.13767 9.32026 4.16094 9.34375L4.77812 9.96406Z"/>
</svg>
