<svg width="16" height="16" viewBox="0 0 16 16" fill="none" xmlns="http://www.w3.org/2000/svg">
<path d="M13.5621 11.4365H12.4637C12.3887 11.4365 12.3184 11.4693 12.2715 11.5271C12.1621 11.66 12.0449 11.7881 11.9215 11.91C11.4166 12.4153 10.8186 12.8181 10.1606 13.0959C9.47876 13.3839 8.74597 13.5316 8.00587 13.5303C7.25743 13.5303 6.53243 13.3834 5.85118 13.0959C5.1931 12.8181 4.59509 12.4153 4.09024 11.91C3.58448 11.4063 3.1812 10.8093 2.90274 10.1521C2.61368 9.47089 2.46837 8.74745 2.46837 7.99902C2.46837 7.25058 2.61524 6.52714 2.90274 5.84589C3.18087 5.18808 3.58086 4.59589 4.09024 4.08808C4.59962 3.58027 5.1918 3.18027 5.85118 2.90214C6.53243 2.61464 7.25743 2.46777 8.00587 2.46777C8.7543 2.46777 9.4793 2.61308 10.1606 2.90214C10.8199 3.18027 11.4121 3.58027 11.9215 4.08808C12.0449 4.21152 12.1606 4.33964 12.2715 4.47089C12.3184 4.5287 12.3902 4.56152 12.4637 4.56152H13.5621C13.6606 4.56152 13.7215 4.45214 13.6668 4.36933C12.4684 2.50683 10.3715 1.27402 7.98868 1.28027C4.24493 1.28964 1.24337 4.3287 1.28087 8.06777C1.31837 11.7475 4.31524 14.7178 8.00587 14.7178C10.3824 14.7178 12.4699 13.4865 13.6668 11.6287C13.7199 11.5459 13.6606 11.4365 13.5621 11.4365ZM14.9512 7.90058L12.734 6.15058C12.6512 6.08495 12.5309 6.14433 12.5309 6.24902V7.43652H7.62462C7.55587 7.43652 7.49962 7.49277 7.49962 7.56152V8.43652C7.49962 8.50527 7.55587 8.56152 7.62462 8.56152H12.5309V9.74902C12.5309 9.8537 12.6527 9.91308 12.734 9.84745L14.9512 8.09745C14.9661 8.08576 14.9782 8.07082 14.9865 8.05377C14.9948 8.03671 14.9991 8.01799 14.9991 7.99902C14.9991 7.98004 14.9948 7.96132 14.9865 7.94427C14.9782 7.92721 14.9661 7.91227 14.9512 7.90058Z" fill="black" fill-opacity="0.88"/>
</svg>
