<svg width="12" height="12" viewBox="0 0 12 12" fill="none" xmlns="http://www.w3.org/2000/svg">
<path d="M11.5714 1.2832H0.428571C0.191518 1.2832 0 1.47472 0 1.71177V10.2832C0 10.5203 0.191518 10.7118 0.428571 10.7118H11.5714C11.8085 10.7118 12 10.5203 12 10.2832V1.71177C12 1.47472 11.8085 1.2832 11.5714 1.2832ZM11.0357 2.76713V9.74749H0.964286V2.76713L0.594643 2.47919L1.12098 1.80285L1.6942 2.24883H10.3071L10.8804 1.80285L11.4067 2.47919L11.0357 2.76713ZM10.3071 2.24749L6 5.5957L1.69286 2.24749L1.11964 1.80151L0.593304 2.47785L0.962946 2.76579L5.53795 6.32294C5.66952 6.42515 5.83138 6.48064 5.99799 6.48064C6.1646 6.48064 6.32647 6.42515 6.45804 6.32294L11.0357 2.76713L11.4054 2.47919L10.879 1.80285L10.3071 2.24749Z" fill="#030B15" fill-opacity="0.45"/>
</svg>
