<svg width="12" height="12" viewBox="0 0 12 12" fill="none" xmlns="http://www.w3.org/2000/svg">
<path d="M10.5886 3.01557C10.3365 2.43416 9.97293 1.90774 9.51851 1.46602C9.06261 1.0203 8.52515 0.66654 7.93548 0.424051C7.32208 0.169587 6.67119 0.0410156 6.00021 0.0410156C5.32923 0.0410156 4.67833 0.169587 4.06494 0.422712C3.47164 0.667801 2.93994 1.01869 2.48191 1.46468C2.02778 1.90665 1.66429 2.43301 1.41182 3.01423C1.15066 3.61691 1.01807 4.25709 1.01807 4.91602C1.01807 5.86155 1.24441 6.80307 1.68905 7.71111C2.04664 8.44102 2.54619 9.15218 3.17566 9.82852C4.2511 10.983 5.37878 11.6888 5.69887 11.8776C5.78973 11.9313 5.89335 11.9595 5.99887 11.9593C6.10333 11.9593 6.20646 11.9325 6.29887 11.8776C6.61896 11.6888 7.74664 10.983 8.82208 9.82852C9.45155 9.15352 9.9511 8.44102 10.3087 7.71111C10.756 6.80441 10.9824 5.86423 10.9824 4.91736C10.9824 4.25843 10.8498 3.61825 10.5886 3.01557ZM6.00021 10.9321C5.11762 10.3709 1.98235 8.14905 1.98235 4.91736C1.98235 3.87405 2.39887 2.89369 3.15557 2.15441C3.91494 1.41378 4.92476 1.0053 6.00021 1.0053C7.07566 1.0053 8.08548 1.41378 8.84485 2.15575C9.60155 2.89369 10.0181 3.87405 10.0181 4.91736C10.0181 8.14905 6.8828 10.3709 6.00021 10.9321ZM6.00021 2.66602C4.69842 2.66602 3.64307 3.72137 3.64307 5.02316C3.64307 6.32494 4.69842 7.3803 6.00021 7.3803C7.30199 7.3803 8.35735 6.32494 8.35735 5.02316C8.35735 3.72137 7.30199 2.66602 6.00021 2.66602ZM7.06092 6.08387C6.9218 6.2234 6.75647 6.33403 6.57443 6.40942C6.39239 6.48481 6.19724 6.52347 6.00021 6.52316C5.59976 6.52316 5.22342 6.36646 4.93949 6.08387C4.79997 5.94475 4.68933 5.77941 4.61395 5.59738C4.53856 5.41534 4.4999 5.22019 4.50021 5.02316C4.50021 4.62271 4.65691 4.24637 4.93949 3.96244C5.22342 3.67852 5.59976 3.52316 6.00021 3.52316C6.40066 3.52316 6.777 3.67852 7.06092 3.96244C7.34485 4.24637 7.50021 4.62271 7.50021 5.02316C7.50021 5.4236 7.34485 5.79994 7.06092 6.08387Z" fill="#030B15" fill-opacity="0.45"/>
</svg>
