<svg width="16" height="16" viewBox="0 0 16 16" fill="none" xmlns="http://www.w3.org/2000/svg">
<path d="M12.1758 3.07266C10.704 1.60078 8.30709 1.60078 6.83678 3.07266L2.75866 7.14766C2.73209 7.17422 2.71803 7.21016 2.71803 7.24766C2.71803 7.28516 2.73209 7.32109 2.75866 7.34766L3.33522 7.92422C3.36157 7.95046 3.39725 7.96519 3.43444 7.96519C3.47163 7.96519 3.5073 7.95046 3.53366 7.92422L7.61178 3.84922C8.11803 3.34297 8.79147 3.06484 9.50709 3.06484C10.2227 3.06484 10.8962 3.34297 11.4008 3.84922C11.9071 4.35547 12.1852 5.02891 12.1852 5.74297C12.1852 6.45859 11.9071 7.13047 11.4008 7.63672L7.24459 11.7914L6.57116 12.4648C5.94147 13.0945 4.91803 13.0945 4.28834 12.4648C3.98366 12.1602 3.81647 11.7555 3.81647 11.3242C3.81647 10.893 3.98366 10.4883 4.28834 10.1836L8.41178 6.06172C8.51647 5.95859 8.65397 5.90078 8.80084 5.90078H8.80241C8.94928 5.90078 9.08522 5.95859 9.18834 6.06172C9.29303 6.16641 9.34928 6.30391 9.34928 6.45078C9.34928 6.59609 9.29147 6.73359 9.18834 6.83672L5.81803 10.2039C5.79147 10.2305 5.77741 10.2664 5.77741 10.3039C5.77741 10.3414 5.79147 10.3773 5.81803 10.4039L6.39459 10.9805C6.42095 11.0067 6.45662 11.0214 6.49381 11.0214C6.531 11.0214 6.56668 11.0067 6.59303 10.9805L9.96178 7.61172C10.2727 7.30078 10.443 6.88828 10.443 6.44922C10.443 6.01016 10.2712 5.59609 9.96178 5.28672C9.31959 4.64453 8.27584 4.64609 7.63366 5.28672L7.23366 5.68828L3.51178 9.40859C3.25917 9.65972 3.05894 9.9585 2.92268 10.2876C2.78643 10.6167 2.71686 10.9696 2.71803 11.3258C2.71803 12.0492 3.00084 12.7289 3.51178 13.2398C4.04147 13.768 4.73522 14.032 5.42897 14.032C6.12272 14.032 6.81647 13.768 7.34459 13.2398L12.1758 8.41172C12.8868 7.69922 13.2805 6.75078 13.2805 5.74297C13.2821 4.73359 12.8883 3.78516 12.1758 3.07266Z" fill="black" fill-opacity="0.88"/>
</svg>
