<svg viewBox="0 0 12 12" xmlns="http://www.w3.org/2000/svg">
<path d="M10.8899 2.34141L9.4636 0.916406C9.2895 0.742299 9.05646 0.644531 8.81003 0.644531C8.5636 0.644531 8.33057 0.74096 8.15646 0.916406L6.6203 2.44989C6.44619 2.624 6.34842 2.85837 6.34842 3.1048C6.34842 3.35257 6.44485 3.58426 6.6203 3.75971L7.8203 4.96105C7.54693 5.59799 7.15414 6.17671 6.66316 6.66596C6.17164 7.16016 5.59708 7.54989 4.95958 7.82578L3.75958 6.62444C3.58548 6.45034 3.35244 6.35257 3.10601 6.35257C2.98446 6.35212 2.86405 6.37593 2.75182 6.42262C2.63959 6.4693 2.53781 6.53792 2.45244 6.62444L0.914941 8.15792C0.740834 8.33203 0.643066 8.56641 0.643066 8.81284C0.643066 9.0606 0.739495 9.2923 0.914941 9.46775L2.33994 10.8927C2.63726 11.1901 3.04708 11.3602 3.46762 11.3602C3.55467 11.3602 3.63905 11.3535 3.72476 11.3387C5.49798 11.0468 7.2578 10.1026 8.67878 8.68293C10.0984 7.2606 11.0413 5.50078 11.3359 3.72623C11.4203 3.22266 11.2515 2.70435 10.8899 2.34141ZM10.3864 3.56685C10.1252 5.14587 9.2761 6.72087 7.99708 7.99989C6.71807 9.27891 5.14441 10.128 3.56539 10.3892C3.36717 10.4227 3.1636 10.3557 3.01896 10.2124L1.61941 8.81284L3.10333 7.32757L4.7078 8.93471L4.71985 8.94676L5.00914 8.83962C5.88627 8.51713 6.6828 8.00776 7.3435 7.34683C8.00421 6.68589 8.51329 5.88919 8.83548 5.01194L8.94262 4.72266L7.32476 3.10614L8.80869 1.62087L10.2082 3.02042C10.3529 3.16507 10.4199 3.36864 10.3864 3.56685Z" fill="#030B15"/>
</svg>
